# xmcd CD database file
#
# Track frame offsets:
#	182
#	12887
#	34815
#	64870
#	82545
#	107790
#	131905
#	157640
#	175475
#	196812
#
# Disc length: 2879 seconds
#
# Revision: 1
# Processed by: cddbd v1.5.1PL2 Copyright (c) Steve Scherf et al.
# Submitted via: CDex 1.51
#
DISCID=740b3d0a
DTITLE=John Dankworth - London Symphony Orchestra - Innovations
DYEAR=1988
DGENRE=Jazz
TTITLE0=Fanfare For London
TTITLE1=Take Five
TTITLE2=Allegro Citroso
TTITLE3=The Very Tought Of You
TTITLE4=We've Only Just Begun
TTITLE5=Belleville Blue
TTITLE6=Caravan
TTITLE7=Misty
TTITLE8=Satin Doll
TTITLE9=Here There And Everywhere
EXTD=YEAR: 1988
EXTT0=
EXTT1=
EXTT2=
EXTT3=
EXTT4=
EXTT5=
EXTT6=
EXTT7=
EXTT8=
EXTT9=
PLAYORDER=
